<svg width="50" height="50" viewBox="0 0 50 50" fill="none" xmlns="http://www.w3.org/2000/svg">
<circle cx="25.4639" cy="24.52" r="24.5" fill="white"/>
<path d="M22.0778 15.7481C22.1028 15.9011 22.0268 16.0281 21.7718 16.1561C21.2549 15.9496 20.6957 15.8711 20.1418 15.9271C19.5048 15.9781 18.9698 16.1821 19.0418 16.6151C19.1418 17.0481 19.7548 17.3031 20.8498 17.2011C23.5238 16.9721 23.4988 15.1631 27.4208 14.8071C30.4768 14.5271 32.1838 15.4691 32.4128 16.6151C32.5908 17.5061 31.8528 18.3721 29.6368 18.5511C27.6758 18.7291 26.5298 18.1941 26.4278 17.6601C26.3768 17.3801 26.5278 16.9721 27.4718 16.8701C27.5718 17.3031 28.1088 17.7611 29.3818 17.6341C30.3048 17.5561 31.0638 17.2201 30.9638 16.7201C30.8638 16.1851 29.8938 15.8801 28.3638 16.0071C25.2568 16.2871 24.4928 17.9941 21.8438 18.2231C19.9638 18.3961 18.4358 17.7091 18.2318 16.6901C18.1558 16.3081 18.1558 15.4171 20.1418 15.2381C21.1608 15.1621 21.9758 15.3391 22.0778 15.7481ZM12.1448 26.3941C11.3191 27.4122 10.9017 28.7012 10.9738 30.0101C11.016 30.608 11.1855 31.19 11.4709 31.717C11.7564 32.2441 12.1512 32.704 12.6288 33.0661C13.0946 33.4406 13.6384 33.7059 14.2202 33.8426C14.802 33.9793 15.407 33.9839 15.9908 33.8561C16.5014 33.7295 17.0026 33.5677 17.4908 33.3721C16.4818 33.3708 15.5063 33.0094 14.7398 32.3531C14.2715 32.0271 13.8758 31.6076 13.5777 31.121C13.2796 30.6345 13.0856 30.0914 13.0078 29.5261C12.895 29.0099 12.8913 28.4759 12.9971 27.9582C13.1028 27.4405 13.3156 26.9507 13.6218 26.5201C13.9549 26.0968 14.3705 25.7456 14.8434 25.4877C15.3163 25.2299 15.8366 25.0708 16.3728 25.0201C17.5208 24.9398 18.6594 25.274 19.5818 25.9621C19.3192 25.6485 19.0294 25.3587 18.7158 25.0961C18.2262 24.7305 17.661 24.479 17.0617 24.36C16.4624 24.241 15.844 24.2574 15.2518 24.4081C14.0082 24.6686 12.903 25.3744 12.1448 26.3941ZM25.7968 20.5101C22.9994 20.5329 20.2071 20.2682 17.4638 19.7201C15.2008 19.1601 14.0038 18.5491 14.0038 17.7601C14.0038 17.4291 14.1568 17.1491 14.6148 16.8181C13.1888 17.3781 12.4248 17.8371 12.4248 18.5501C12.5008 19.3401 13.7748 20.1291 16.3728 20.7401C19.4398 21.4253 22.5778 21.7416 25.7198 21.6821C28.8611 21.7457 31.9985 21.4294 35.0638 20.7401C37.6638 20.1291 38.9098 19.3141 38.9098 18.5501C38.9098 17.9901 38.3498 17.4501 37.3308 17.0501C37.4494 17.1233 37.5484 17.2241 37.6195 17.3439C37.6905 17.4637 37.7315 17.599 37.7388 17.7381C37.7388 18.5281 36.5668 19.1641 34.1988 19.6991C31.4354 20.2701 28.6185 20.542 25.7968 20.5101ZM35.1698 22.7001C32.0988 23.36 28.9638 23.676 25.8228 23.6421C22.6568 23.667 19.4973 23.3511 16.3988 22.7001C14.2088 22.1401 13.0368 21.5281 12.6298 20.8921C13.0431 23.5715 13.9231 26.1577 15.2298 28.5331C16.1718 29.9591 17.1148 31.2071 18.0568 32.5571C18.4455 33.3065 18.7365 34.1027 18.9228 34.9261C19.5585 35.7916 20.4792 36.405 21.5228 36.6581C22.8602 37.1395 24.2806 37.3472 25.6998 37.2691H25.8528C27.3116 37.3323 28.7694 37.1252 30.1528 36.6581C31.1574 36.3665 32.0414 35.7592 32.6738 34.9261H32.7498C32.9088 34.1054 33.1744 33.309 33.5398 32.5571C34.4818 31.2071 35.4248 29.9571 36.3668 28.5331C37.6469 26.1463 38.5243 23.5646 38.9638 20.8921C38.4548 21.6051 37.2828 22.2201 35.1688 22.7011L35.1698 22.7001Z" fill="#9CE2D3"/>
</svg>
