<svg width="166" height="48" viewBox="0 0 166 48" fill="none" xmlns="http://www.w3.org/2000/svg">
<rect x="0.963867" width="165" height="48" rx="24" fill="white"/>
<path d="M26.0778 13.7281C26.1028 13.8811 26.0268 14.0081 25.7718 14.1361C25.2549 13.9296 24.6957 13.8511 24.1418 13.9071C23.5048 13.9581 22.9698 14.1621 23.0418 14.5951C23.1418 15.0281 23.7548 15.2831 24.8498 15.1811C27.5238 14.9521 27.4988 13.1431 31.4208 12.7871C34.4768 12.5071 36.1838 13.4491 36.4128 14.5951C36.5908 15.4861 35.8528 16.3521 33.6368 16.5311C31.6758 16.7091 30.5298 16.1741 30.4278 15.6401C30.3768 15.3601 30.5278 14.9521 31.4718 14.8501C31.5718 15.2831 32.1088 15.7411 33.3818 15.6141C34.3048 15.5361 35.0638 15.2001 34.9638 14.7001C34.8638 14.1651 33.8938 13.8601 32.3638 13.9871C29.2568 14.2671 28.4928 15.9741 25.8438 16.2031C23.9638 16.3761 22.4358 15.6891 22.2318 14.6701C22.1558 14.2881 22.1558 13.3971 24.1418 13.2181C25.1608 13.1421 25.9758 13.3191 26.0778 13.7281ZM16.1448 24.3741C15.3191 25.3922 14.9017 26.6812 14.9738 27.9901C15.016 28.588 15.1855 29.1699 15.4709 29.697C15.7564 30.2241 16.1512 30.684 16.6288 31.0461C17.0946 31.4206 17.6384 31.6859 18.2202 31.8226C18.802 31.9593 19.407 31.9639 19.9908 31.8361C20.5014 31.7094 21.0026 31.5477 21.4908 31.3521C20.4818 31.3507 19.5063 30.9894 18.7398 30.3331C18.2715 30.0071 17.8758 29.5876 17.5777 29.101C17.2796 28.6144 17.0856 28.0714 17.0078 27.5061C16.895 26.9899 16.8913 26.4558 16.9971 25.9382C17.1028 25.4205 17.3156 24.9306 17.6218 24.5001C17.9549 24.0768 18.3705 23.7256 18.8434 23.4677C19.3163 23.2099 19.8366 23.0508 20.3728 23.0001C21.5208 22.9198 22.6594 23.254 23.5818 23.9421C23.3192 23.6285 23.0294 23.3387 22.7158 23.0761C22.2262 22.7105 21.661 22.459 21.0617 22.34C20.4624 22.2209 19.844 22.2374 19.2518 22.3881C18.0082 22.6486 16.903 23.3544 16.1448 24.3741ZM29.7968 18.4901C26.9994 18.5129 24.2071 18.2481 21.4638 17.7001C19.2008 17.1401 18.0038 16.5291 18.0038 15.7401C18.0038 15.4091 18.1568 15.1291 18.6148 14.7981C17.1888 15.3581 16.4248 15.8171 16.4248 16.5301C16.5008 17.3201 17.7748 18.1091 20.3728 18.7201C23.4398 19.4053 26.5778 19.7216 29.7198 19.6621C32.8611 19.7257 35.9985 19.4094 39.0638 18.7201C41.6638 18.1091 42.9098 17.2941 42.9098 16.5301C42.9098 15.9701 42.3498 15.4301 41.3308 15.0301C41.4494 15.1033 41.5484 15.2041 41.6195 15.3239C41.6905 15.4437 41.7315 15.579 41.7388 15.7181C41.7388 16.5081 40.5668 17.1441 38.1988 17.6791C35.4354 18.2501 32.6185 18.522 29.7968 18.4901ZM39.1698 20.6801C36.0988 21.34 32.9638 21.656 29.8228 21.6221C26.6568 21.6469 23.4973 21.3311 20.3988 20.6801C18.2088 20.1201 17.0368 19.5081 16.6298 18.8721C17.0431 21.5515 17.9231 24.1377 19.2298 26.5131C20.1718 27.9391 21.1148 29.1871 22.0568 30.5371C22.4455 31.2865 22.7365 32.0827 22.9228 32.9061C23.5585 33.7716 24.4792 34.385 25.5228 34.6381C26.8602 35.1194 28.2806 35.3272 29.6998 35.2491H29.8528C31.3116 35.3123 32.7694 35.1052 34.1528 34.6381C35.1574 34.3465 36.0414 33.7392 36.6738 32.9061H36.7498C36.9088 32.0854 37.1744 31.2889 37.5398 30.5371C38.4818 29.1871 39.4248 27.9371 40.3668 26.5131C41.6469 24.1263 42.5243 21.5446 42.9638 18.8721C42.4548 19.5851 41.2828 20.2001 39.1688 20.6811L39.1698 20.6801Z" fill="#73CFBB"/>
<path d="M58.3215 29.132C57.3538 29.132 56.5224 28.9384 55.8274 28.5513C55.1412 28.1554 54.6134 27.6012 54.2439 26.8886C53.8744 26.1672 53.6897 25.3183 53.6897 24.3418C53.6897 23.3653 53.8744 22.5207 54.2439 21.8081C54.6134 21.0955 55.1412 20.5457 55.8274 20.1586C56.5224 19.7627 57.3538 19.5648 58.3215 19.5648C58.9725 19.5648 59.5575 19.6572 60.0766 19.8419C60.6044 20.0267 61.0575 20.2994 61.4358 20.6601L60.8815 22.0061C60.468 21.6718 60.0678 21.4342 59.6807 21.2935C59.3024 21.1439 58.8669 21.0691 58.3743 21.0691C57.4329 21.0691 56.7116 21.3551 56.2101 21.9269C55.7175 22.4899 55.4711 23.2949 55.4711 24.3418C55.4711 25.3887 55.7175 26.198 56.2101 26.7699C56.7116 27.3417 57.4329 27.6276 58.3743 27.6276C58.8669 27.6276 59.3024 27.5572 59.6807 27.4165C60.0678 27.2669 60.468 27.0206 60.8815 26.6775L61.4358 28.0235C61.0575 28.3754 60.6044 28.6481 60.0766 28.8416C59.5575 29.0352 58.9725 29.132 58.3215 29.132ZM62.4269 24.3418C62.4269 23.3653 62.6029 22.5207 62.9548 21.8081C63.3154 21.0955 63.8301 20.5457 64.4987 20.1586C65.1673 19.7627 65.9635 19.5648 66.8872 19.5648C67.8021 19.5648 68.5939 19.7627 69.2625 20.1586C69.9311 20.5457 70.4457 21.0955 70.8064 21.8081C71.1759 22.5207 71.3607 23.3609 71.3607 24.3286C71.3607 25.3051 71.1759 26.154 70.8064 26.8754C70.4457 27.588 69.9311 28.1423 69.2625 28.5381C68.5939 28.934 67.8021 29.132 66.8872 29.132C65.9635 29.132 65.1673 28.934 64.4987 28.5381C63.8389 28.1423 63.3286 27.588 62.9679 26.8754C62.6073 26.154 62.4269 25.3095 62.4269 24.3418ZM64.2084 24.3418C64.2084 25.3887 64.4327 26.2068 64.8814 26.7963C65.3301 27.3857 65.9987 27.6804 66.8872 27.6804C67.7493 27.6804 68.4135 27.3857 68.8798 26.7963C69.3461 26.2068 69.5792 25.3887 69.5792 24.3418C69.5792 23.2861 69.3461 22.4679 68.8798 21.8873C68.4223 21.3067 67.7581 21.0164 66.8872 21.0164C65.9987 21.0164 65.3301 21.3067 64.8814 21.8873C64.4327 22.4679 64.2084 23.2861 64.2084 24.3418ZM73.1172 29V19.6968H79.2534V21.0296H74.8195V23.6688H78.9499V25.0016H74.8195V29H73.1172ZM80.6689 29V19.6968H86.805V21.0296H82.3712V23.6688H86.5015V25.0016H82.3712V29H80.6689ZM88.2205 29V19.6968H94.4887V21.0296H89.8568V23.6028H94.1852V24.9488H89.8568V27.654H94.4887V29H88.2205ZM96.0686 29V19.6968H102.337V21.0296H97.7049V23.6028H102.033V24.9488H97.7049V27.654H102.337V29H96.0686ZM111.866 29.132C110.898 29.132 110.067 28.9384 109.372 28.5513C108.686 28.1554 108.158 27.6012 107.789 26.8886C107.419 26.1672 107.234 25.3183 107.234 24.3418C107.234 23.3653 107.419 22.5207 107.789 21.8081C108.158 21.0955 108.686 20.5457 109.372 20.1586C110.067 19.7627 110.898 19.5648 111.866 19.5648C112.517 19.5648 113.102 19.6572 113.621 19.8419C114.149 20.0267 114.602 20.2994 114.98 20.6601L114.426 22.0061C114.013 21.6718 113.612 21.4342 113.225 21.2935C112.847 21.1439 112.412 21.0691 111.919 21.0691C110.978 21.0691 110.256 21.3551 109.755 21.9269C109.262 22.4899 109.016 23.2949 109.016 24.3418C109.016 25.3887 109.262 26.198 109.755 26.7699C110.256 27.3417 110.978 27.6276 111.919 27.6276C112.412 27.6276 112.847 27.5572 113.225 27.4165C113.612 27.2669 114.013 27.0206 114.426 26.6775L114.98 28.0235C114.602 28.3754 114.149 28.6481 113.621 28.8416C113.102 29.0352 112.517 29.132 111.866 29.132ZM116.572 29V19.6968H118.274V23.5764H123.038V19.6968H124.74V29H123.038V24.9884H118.274V29H116.572ZM125.761 29L129.971 19.6968H131.396L135.659 29H133.93L132.795 26.3872L133.481 26.849H127.899L128.612 26.3872L127.477 29H125.761ZM130.67 21.5178L128.81 25.9253L128.467 25.5162H132.901L132.623 25.9253L130.723 21.5178H130.67ZM137.847 29V21.0955H134.773V19.6968H142.624V21.0955H139.55V29H137.847Z" fill="#73CFBB"/>
</svg>
